Coordinates
version=1
nRows=19
nColumns=24
inDegrees=yes

Units are S.I. units (second, meters, Newtons, ...)
Angles are in degrees.

endheader
time	pelvis_tilt	pelvis_list	pelvis_rotation	pelvis_tx	pelvis_ty	pelvis_tz	hip_flexion_r	hip_adduction_r	hip_rotation_r	knee_angle_r	ankle_angle_r	subtalar_angle_r	mtp_angle_r	hip_flexion_l	hip_adduction_l	hip_rotation_l	knee_angle_l	ankle_angle_l	subtalar_angle_l	mtp_angle_l	lumbar_extension	lumbar_bending	lumbar_rotation
      1.50450000	     -2.25493406	     -1.83502003	     -8.28212020	      0.96601655	      0.98819449	      0.30629998	    -19.04050455	      4.50154094	      9.77211839	    -10.57323532	     12.05755405	     -3.82998466	      2.32876905	     30.91315348	     -4.79746426	     -4.56781869	     -1.80781142	     13.77815003	    -10.42990036	      0.43586478	      0.80196151	     -1.29404512	      9.20929056
      1.50866667	     -2.25459743	     -1.75274702	     -8.40709893	      0.97217227	      0.98740616	      0.30586544	    -19.26851212	      4.26455867	      9.52335453	    -10.76831648	     11.98877571	     -3.32308336	      2.85416017	     30.92087344	     -4.70509012	     -4.47047710	     -2.39430457	     13.99788301	    -10.53952214	      0.54934297	      0.94899012	     -1.37575984	      9.62262244
      1.51283333	     -2.26881716	     -1.66943472	     -8.50300968	      0.97842415	      0.98658834	      0.30543397	    -19.53102460	      4.05136415	      9.42646587	    -10.86007873	     11.68394209	     -3.20869387	      2.94207771	     30.93161549	     -4.59735884	     -4.31201948	     -2.96578644	     14.20428657	    -10.68812335	      0.57990175	      1.09381712	     -1.44840725	      9.64682337
      1.51700000	     -2.28580951	     -1.58745802	     -8.59133284	      0.98470431	      0.98575620	      0.30492255	    -19.75825795	      3.82952058	      9.21951573	    -11.00649987	     11.37002031	     -2.92869509	      7.06416849	     30.92798174	     -4.47572802	     -4.08715047	     -3.50812131	     14.23784020	    -10.97965413	      1.75853271	      1.24068998	     -1.49397471	      9.73008572
      1.52116667	     -2.29680043	     -1.47389822	     -8.69819612	      0.99108589	      0.98496689	      0.30447632	    -19.99800630	      3.57891776	      9.09673514	    -11.14533604	     11.05495360	     -2.80515971	      7.07429257	     30.90364732	     -4.33825566	     -4.01235069	     -4.04696660	     14.35100394	    -11.07635560	      1.76883761	      1.40329908	     -1.60514340	      9.83688562
      1.52533333	     -2.30420533	     -1.36554397	     -8.77700640	      0.99750205	      0.98416730	      0.30394284	    -20.22663192	      3.33480930	      8.89902223	    -11.31832504	     10.80564783	     -2.53549369	      7.14742960	     30.87562147	     -4.18514791	     -3.90280933	     -4.57393375	     14.34471062	    -11.17640766	      1.81337690	      1.56942022	     -1.70569111	     10.08021464
      1.52950000	     -2.32658073	     -1.25560397	     -8.88511642	      1.00394665	      0.98337987	      0.30345648	    -20.41590500	      3.08660436	      8.73761269	    -11.53186598	     10.46828106	     -2.35735511	      7.19386574	     30.84017471	     -4.04659957	     -3.82938728	     -5.07155583	     14.30320606	    -11.30079333	      1.84651716	      1.75884665	     -1.79548583	     10.16096247
      1.53366667	     -2.34567252	     -1.11397752	     -8.97642209	      1.01045653	      0.98258842	      0.30290506	    -20.58369395	      2.80124530	      8.47668027	    -11.79372388	     10.26432969	     -1.97490762	      7.41732541	     30.78952894	     -3.85813155	     -3.70116125	     -5.53290826	     14.09687864	    -11.59871821	      1.99289984	      1.94434956	     -1.92379491	     10.41465026
      1.53783333	     -2.37405315	     -0.98976375	     -9.06228684	      1.01700421	      0.98181548	      0.30235841	    -20.75095233	      2.54750724	      8.30406664	    -12.03122576	      9.85557798	     -1.84062962	      7.49207758	     30.74795785	     -3.69206038	     -3.64993145	     -5.99402803	     13.91615315	    -11.67351406	      2.04653400	      2.15500518	     -2.02072099	     10.44882518
      1.54200000	     -2.40015926	     -0.83978348	     -9.14732809	      1.02354671	      0.98105573	      0.30176156	    -20.86664865	      2.25557946	      8.00378621	    -12.36980511	      9.60486227	     -1.45342697	      7.95278272	     30.68215832	     -3.48643553	     -3.50624371	     -6.39249259	     13.51327240	    -12.06729889	      2.35641071	      2.35257703	     -2.14180553	     10.65827049
      1.54616667	     -2.42811335	     -0.69351029	     -9.19688023	      1.03016732	      0.98030521	      0.30115634	    -21.01621722	      1.99417804	      7.79763122	    -12.63257222	      9.14555379	     -1.35998355	      8.04358469	     30.65121463	     -3.28483201	     -3.50396136	     -6.85183367	     13.17416092	    -12.09774318	      2.42100537	      2.57845589	     -2.28056120	     10.66729454
      1.55033333	     -2.44071905	     -0.52511834	     -9.25802396	      1.03678913	      0.97959366	      0.30052868	    -21.13561082	      1.69462283	      7.50971374	    -12.96886025	      8.69238110	     -1.14941893	     11.85786559	     30.58708614	     -3.05502242	     -3.43726054	     -7.25792512	     12.59304722	    -12.42181616	      4.98384963	      2.76433399	     -2.44133556	     10.79859076
      1.55450000	     -2.49229304	     -0.33262735	     -9.30856929	      1.04346755	      0.97886095	      0.29988704	    -21.19665048	      1.38422071	      7.21963602	    -13.34243941	      8.28859061	     -0.92060156	     11.91156833	     30.57506757	     -2.80847295	     -3.44299130	     -7.68417078	     12.06514466	    -12.56306048	      4.99587525	      3.02382686	     -2.63125760	     10.86240158
      1.55866667	     -2.51609968	     -0.16512808	     -9.34164705	      1.05010898	      0.97820204	      0.29920186	    -21.27688992	      1.10446386	      6.93801542	    -13.72670305	      7.77331347	     -0.78932897	     11.94219745	     30.55144777	     -2.57876530	     -3.47530267	     -8.13522098	     11.52220739	    -12.59486498	      5.00713699	      3.25064265	     -2.75885959	     10.89045654
      1.56283333	     -2.54360857	      0.04886826	     -9.35244513	      1.05679386	      0.97755977	      0.29845786	    -21.31671335	      0.77693649	      6.54977828	    -14.17497878	      7.33638855	     -0.48179461	     12.42601712	     30.50961767	     -2.27073438	     -3.30436937	     -8.51918041	     10.72267933	    -13.15515296	      5.25815980	      3.46836163	     -2.97422528	     10.96719833
      1.56700000	     -2.59255409	      0.27562685	     -9.35750759	      1.06347406	      0.97691571	      0.29769647	    -21.29449131	      0.44391804	      6.13436271	    -14.69730042	      6.92249444	     -0.20778276	     12.69561140	     30.53395807	     -1.97357407	     -3.34167966	     -8.98791246	     10.03678124	    -13.26074607	      5.39872250	      3.72423492	     -3.19401783	     11.02993402
      1.57116667	     -2.61514212	      0.48969191	     -9.34723121	      1.07018333	      0.97637346	      0.29694706	    -21.32200587	      0.13647970	      5.79818672	    -15.15983257	      6.28983586	     -0.13087722	     12.75806524	     30.55024460	     -1.68956908	     -3.43085229	     -9.50355682	      9.41680623	    -13.21937327	      5.42726728	      3.95887496	     -3.40016944	     11.02681477
      1.57533333	     -2.65152162	      0.74579293	     -9.32071777	      1.07685651	      0.97582255	      0.29610370	    -21.26055907	     -0.22532140	      5.29416647	    -15.76328051	      5.83102147	      0.25382771	     13.21747085	     30.57672014	     -1.33585865	     -3.33006560	     -9.98100543	      8.57739879	    -13.61844235	      5.65455077	      4.18548507	     -3.66064615	     11.07229387
      1.57950000	     -2.65191775	      0.99776162	     -9.26086431	      1.08355472	      0.97537924	      0.29526603	    -21.26585503	     -0.55649974	      4.87895693	    -16.29683393	      5.13978197	      0.27946576	     13.30103000	     30.62079159	     -0.99591761	     -3.44259646	    -10.59507420	      7.98647106	    -13.54910272	      5.69107684	      4.39493130	     -3.92758376	     11.04943568
